<?xml version="1.0" encoding="UTF-8"?>
<svg width="966px" height="676px" viewBox="0 0 966 676" version="1.1" xmlns="http://www.w3.org/2000/svg" xmlns:xlink="http://www.w3.org/1999/xlink">
    <!-- Generator: Sketch 42 (36781) - http://www.bohemiancoding.com/sketch -->
    <title>TailorDev Logo with text Green</title>
    <desc>Created with Sketch.</desc>
    <defs></defs>
    <g id="Page-1" stroke="none" stroke-width="1" fill="none" fill-rule="evenodd">
        <g id="TailorDev-Logo-with-text-Green">
            <path d="M382.467265,502.60592 C333.086349,498.752763 293.332921,487.754332 257.574327,469.832674 C247.357586,464.635393 236.863021,458.070598 233.457441,454.755091 C230.777787,453.754749 233.544074,444.293514 234.350659,442.142915 C239.010927,429.060104 251.907676,423.486854 265.440377,421.963513 C267.625027,421.698743 273.645304,422.722581 273.733973,422.749519 C273.822642,422.776458 278.865925,424.019447 284.153537,426.97652 C350.831216,464.163962 446.008225,468.196335 536.973069,437.819124 C593.344386,418.911774 643.800748,388.444954 682.247958,349.913388 C703.936128,328.228182 719.619722,306.632583 732.076976,281.363044 C747.133227,250.537792 753.048182,224.90982 751.883115,194.891042 C750.269945,152.775144 731.808115,115.856527 698.379655,87.8987399 C676.512244,69.6186482 645.055436,54.2060218 612.971284,46.0516671 C571.028873,35.4778886 523.440368,34.3129808 473.880212,42.646552 C421.004095,51.517773 365.439363,74.0094545 319.73289,105.013924 C278.776305,132.792495 234.055657,180.374498 223.301193,207.615419 C221.060679,213.439958 221.1503,215.680166 223.928536,218.995672 C229.933112,226.164336 247.229876,226.253944 280.747956,219.085281 C298.04472,215.500949 321.346059,209.13876 397.613136,187.453553 L439.645167,175.53565 L456.314587,138.885859 C475.045279,97.6660439 476.479207,95.4258365 486.695948,90.676597 C491.804319,88.2571731 494.345809,88.0701499 500.529626,88.428583 C514.420809,89.2350577 523.70923,98.6517351 526.308225,112.451412 C527.562913,119.082426 526.218605,124.010882 519.138583,139.781942 C515.643382,147.577863 512.954766,154.02966 513.134007,154.208877 C513.402868,154.477702 542.08144,146.592172 577.033449,136.645651 C623.098405,123.652449 641.739476,118.723993 645.234677,118.723993 C655.541039,118.723993 666.385123,125.892656 670.955771,135.749568 C674.09249,142.559799 674.18211,152.147886 671.135012,158.689291 C668.536016,164.334614 664.234231,169.26307 659.484342,172.040927 C657.243829,173.385051 621.933338,183.779613 568.429877,198.923415 C520.39327,212.543875 481.049855,223.744912 480.960234,223.83452 C480.870614,223.924129 460.078649,269.53475 434.805658,325.1815 C392.952868,417.03 388.978945,425.874315 385.304503,429.637863 C379.031065,436.000052 373.098186,438.570043 363.86727,438.570043 C357.414592,438.570043 355.215901,437.95138 351.362218,435.890389 C345.984986,433.022924 341.725023,428.851443 338.857166,423.385337 C337.064755,420.06983 335.864586,417.119608 335.864586,410.847028 C335.864586,410.847028 335.725608,407.992143 335.919987,406.414063 C336.114367,404.835983 337.07073,401.054887 337.07073,401.054887 L371.981662,324.016592 C391.877421,280.466961 408.009118,244.713253 407.829877,244.623644 C407.561015,244.354819 345.812466,261.738828 334.968381,265.143943 C318.298961,270.341224 286.752532,277.509888 264.61626,281.094219 C253.413693,282.886385 233.41516,283.444751 229.441262,283.444751 C225.467363,283.444751 205.645947,282.796777 197.580099,281.094219 C175.174965,276.255372 164.958224,268.369842 162.448849,254.30134 C160.297956,241.576962 165.94405,221.683921 177.953201,200.715581 C223.032331,121.591458 305.572845,57.6111369 405.768604,24.0976354 C540.109788,-20.7961194 677.049967,-1.88876958 751.793494,71.8588555 C781.009789,100.623118 798.216932,133.957402 803.683785,172.578577 C805.207334,183.42118 805.476196,207.256986 804.131888,218.189198 C799.56124,256.093506 783.967267,294.71468 759.052758,329.751523 C748.387914,344.805716 738.977758,356.006752 724.36961,370.881729 C689.596842,406.366613 654.286351,431.72576 607.414811,454.755091 C556.151864,479.935021 505.785123,494.630782 448.338359,500.99297 C436.86693,502.247486 392.146283,503.322786 382.467265,502.60592 Z" id="logo" fill="#000000" fill-rule="nonzero"></path>
            <g id="TAILOR{DEV}" transform="translate(0.000000, 503.000000)">
                <path d="M714.65925,87.882 C714.65925,97.011379 713.29543,105.22213 710.56775,112.5145 C707.84007,119.80687 703.999108,126.013641 699.04475,131.135 C694.090392,136.256359 688.148035,140.18082 681.2175,142.9085 C674.286965,145.63618 666.646792,147 658.29675,147 L615.12725,147 L615.12725,28.8475 L658.29675,28.8475 C666.646792,28.8475 674.286965,30.2113197 681.2175,32.939 C688.148035,35.6666803 694.090392,39.5911411 699.04475,44.7125 C703.999108,49.8338589 707.84007,56.0406302 710.56775,63.333 C713.29543,70.6253698 714.65925,78.808288 714.65925,87.882 Z M705.80825,87.882 C705.80825,79.6432921 704.667095,72.2953656 702.38475,65.838 C700.102405,59.3806344 696.873771,53.9253556 692.69875,49.472 C688.523729,45.0186444 683.513779,41.6230117 677.66875,39.285 C671.823721,36.9469883 665.366452,35.778 658.29675,35.778 L623.72775,35.778 L623.72775,140.0695 L658.29675,140.0695 C665.366452,140.0695 671.823721,138.900512 677.66875,136.5625 C683.513779,134.224488 688.523729,130.828856 692.69875,126.3755 C696.873771,121.922144 700.102405,116.466866 702.38475,110.0095 C704.667095,103.552134 705.80825,96.1763748 705.80825,87.882 Z M810.82225,139.9025 L810.65525,147 L739.84725,147 L739.84725,28.8475 L810.65525,28.8475 L810.65525,35.945 L748.44775,35.945 L748.44775,83.707 L800.21775,83.707 L800.21775,90.6375 L748.44775,90.6375 L748.44775,139.9025 L810.82225,139.9025 Z M924.35325,28.8475 L875.58925,147 L867.99075,147 L819.22675,28.8475 L825.99025,28.8475 C826.769587,28.8475 827.409747,29.0562479 827.91075,29.47375 C828.411752,29.8912521 828.801415,30.4339967 829.07975,31.102 L869.32675,129.131 C869.772086,130.355673 870.217414,131.663826 870.66275,133.0555 C871.108086,134.447174 871.525581,135.866659 871.91525,137.314 C872.249252,135.866659 872.611081,134.447174 873.00075,133.0555 C873.390419,131.663826 873.835747,130.355673 874.33675,129.131 L914.50025,31.102 C914.722918,30.4896636 915.112581,29.9608356 915.66925,29.5155 C916.225919,29.0701644 916.893913,28.8475 917.67325,28.8475 L924.35325,28.8475 Z M602.160114,6.882 C599.393767,6.882 596.868709,7.36449518 594.584864,8.3295 C592.301019,9.29450482 590.338872,10.6776577 588.698364,12.479 C587.057856,14.2803423 585.771202,16.4676538 584.838364,19.041 C583.905526,21.6143462 583.439114,24.4771509 583.439114,27.6295 C583.439114,31.2965183 583.728611,34.8669826 584.307614,38.341 C584.886617,41.8150174 585.529944,45.2407331 586.237614,48.61825 C586.945284,51.9957669 587.588611,55.3732331 588.167614,58.75075 C588.746617,62.1282669 589.036114,65.5218163 589.036114,68.9315 C589.036114,71.3118452 588.634035,73.4991567 587.829864,75.4935 C587.025694,77.4878433 585.964204,79.2248259 584.645364,80.7045 C583.326524,82.1841741 581.814706,83.4225783 580.109864,84.41975 C578.405022,85.4169217 576.61979,86.1084981 574.754114,86.4945 C576.61979,86.9448356 578.405022,87.6685783 580.109864,88.66575 C581.814706,89.6629217 583.326524,90.9013259 584.645364,92.381 C585.964204,93.8606741 587.025694,95.5976567 587.829864,97.592 C588.634035,99.5863433 589.036114,101.773655 589.036114,104.154 C589.036114,107.563684 588.746617,110.957233 588.167614,114.33475 C587.588611,117.712267 586.945284,121.105816 586.237614,124.5155 C585.529944,127.925184 584.886617,131.366983 584.307614,134.841 C583.728611,138.315017 583.439114,141.853315 583.439114,145.456 C583.439114,148.608349 583.905526,151.471154 584.838364,154.0445 C585.771202,156.617846 587.057856,158.805158 588.698364,160.6065 C590.338872,162.407842 592.301019,163.790995 594.584864,164.756 C596.868709,165.721005 599.393767,166.2035 602.160114,166.2035 L605.344614,166.2035 C605.923617,166.2035 606.470445,166.396498 606.985114,166.7825 C607.499783,167.168502 607.757114,167.71533 607.757114,168.423 L607.757114,172.476 L602.449614,172.476 C598.203593,172.476 594.391881,171.784424 591.014364,170.40125 C587.636847,169.018076 584.790126,167.088096 582.474114,164.61125 C580.158103,162.134404 578.388954,159.22335 577.166614,155.878 C575.944275,152.53265 575.333114,148.897853 575.333114,144.9735 C575.333114,141.370815 575.638695,137.880767 576.249864,134.50325 C576.861034,131.125733 577.520444,127.76435 578.228114,124.419 C578.935784,121.07365 579.595195,117.72835 580.206364,114.383 C580.817534,111.03765 581.123114,107.595851 581.123114,104.0575 C581.123114,101.934489 580.769284,99.9884255 580.061614,98.21925 C579.353944,96.4500745 578.340704,94.9060899 577.021864,93.58725 C575.703024,92.2684101 574.126873,91.2551702 572.293364,90.5475 C570.459855,89.8398298 568.417292,89.486 566.165614,89.486 L566.165614,83.5995 C568.417292,83.5995 570.459855,83.2456702 572.293364,82.538 C574.126873,81.8303298 575.703024,80.8170899 577.021864,79.49825 C578.340704,78.1794101 579.353944,76.6354255 580.061614,74.86625 C580.769284,73.0970745 581.123114,71.1510106 581.123114,69.028 C581.123114,65.489649 580.817534,62.0478501 580.206364,58.7025 C579.595195,55.3571499 578.935784,52.0118501 578.228114,48.6665 C577.520444,45.3211499 576.861034,41.9597669 576.249864,38.58225 C575.638695,35.2047331 575.333114,31.7146847 575.333114,28.112 C575.333114,24.187647 575.944275,20.5528501 577.166614,17.2075 C578.388954,13.8621499 580.158103,10.9510957 582.474114,8.47425 C584.790126,5.99740428 587.636847,4.06742358 591.014364,2.68425 C594.391881,1.30107642 598.203593,0.6095 602.449614,0.6095 L607.757114,0.6095 L607.757114,4.6625 C607.757114,5.37017021 607.499783,5.91699807 606.985114,6.303 C606.470445,6.68900193 605.923617,6.882 605.344614,6.882 L602.160114,6.882 Z M965.274614,89.486 C963.022936,89.486 960.980373,89.8398298 959.146864,90.5475 C957.313355,91.2551702 955.737204,92.2684101 954.418364,93.58725 C953.099524,94.9060899 952.086284,96.4500745 951.378614,98.21925 C950.670944,99.9884255 950.317114,101.934489 950.317114,104.0575 C950.317114,107.595851 950.622695,111.03765 951.233864,114.383 C951.845034,117.72835 952.504444,121.07365 953.212114,124.419 C953.919784,127.76435 954.579195,131.125733 955.190364,134.50325 C955.801534,137.880767 956.107114,141.370815 956.107114,144.9735 C956.107114,148.897853 955.495954,152.53265 954.273614,155.878 C953.051275,159.22335 951.282126,162.134404 948.966114,164.61125 C946.650103,167.088096 943.803381,169.018076 940.425864,170.40125 C937.048347,171.784424 933.236635,172.476 928.990614,172.476 L923.683114,172.476 L923.683114,168.423 C923.683114,167.71533 923.940445,167.168502 924.455114,166.7825 C924.969783,166.396498 925.516611,166.2035 926.095614,166.2035 L929.280114,166.2035 C932.046461,166.2035 934.571519,165.721005 936.855364,164.756 C939.139209,163.790995 941.101356,162.407842 942.741864,160.6065 C944.382372,158.805158 945.669026,156.617846 946.601864,154.0445 C947.534702,151.471154 948.001114,148.608349 948.001114,145.456 C948.001114,141.853315 947.711617,138.315017 947.132614,134.841 C946.553611,131.366983 945.910284,127.925184 945.202614,124.5155 C944.494944,121.105816 943.851617,117.712267 943.272614,114.33475 C942.693611,110.957233 942.404114,107.563684 942.404114,104.154 C942.404114,101.773655 942.806194,99.5863433 943.610364,97.592 C944.414535,95.5976567 945.476024,93.8606741 946.794864,92.381 C948.113704,90.9013259 949.625522,89.6629217 951.330364,88.66575 C953.035206,87.6685783 954.820438,86.9448356 956.686114,86.4945 C954.820438,86.1084981 953.035206,85.4169217 951.330364,84.41975 C949.625522,83.4225783 948.113704,82.1841741 946.794864,80.7045 C945.476024,79.2248259 944.414535,77.4878433 943.610364,75.4935 C942.806194,73.4991567 942.404114,71.3118452 942.404114,68.9315 C942.404114,65.5218163 942.693611,62.1282669 943.272614,58.75075 C943.851617,55.3732331 944.494944,51.9957669 945.202614,48.61825 C945.910284,45.2407331 946.553611,41.8150174 947.132614,38.341 C947.711617,34.8669826 948.001114,31.2965183 948.001114,27.6295 C948.001114,24.4771509 947.534702,21.6143462 946.601864,19.041 C945.669026,16.4676538 944.382372,14.2803423 942.741864,12.479 C941.101356,10.6776577 939.139209,9.29450482 936.855364,8.3295 C934.571519,7.36449518 932.046461,6.882 929.280114,6.882 L926.095614,6.882 C925.516611,6.882 924.969783,6.68900193 924.455114,6.303 C923.940445,5.91699807 923.683114,5.37017021 923.683114,4.6625 L923.683114,0.6095 L928.990614,0.6095 C933.236635,0.6095 937.048347,1.30107642 940.425864,2.68425 C943.803381,4.06742358 946.650103,5.99740428 948.966114,8.47425 C951.282126,10.9510957 953.051275,13.8621499 954.273614,17.2075 C955.495954,20.5528501 956.107114,24.187647 956.107114,28.112 C956.107114,31.7146847 955.801534,35.2047331 955.190364,38.58225 C954.579195,41.9597669 953.919784,45.3211499 953.212114,48.6665 C952.504444,52.0118501 951.845034,55.3571499 951.233864,58.7025 C950.622695,62.0478501 950.317114,65.489649 950.317114,69.028 C950.317114,71.1510106 950.670944,73.0970745 951.378614,74.86625 C952.086284,76.6354255 953.099524,78.1794101 954.418364,79.49825 C955.737204,80.8170899 957.313355,81.8303298 959.146864,82.538 C960.980373,83.2456702 963.022936,83.5995 965.274614,83.5995 L965.274614,89.486 Z" id="{DEV}" fill="#5EC3A0"></path>
                <path d="M94.192,40.955 L55.448,40.955 L55.448,147 L39.3325,147 L39.3325,40.955 L0.505,40.955 L0.505,27.3445 L94.192,27.3445 L94.192,40.955 Z M163.646288,102.578 L144.858788,53.8975 C144.302118,52.4501594 143.717624,50.7662596 143.105288,48.84575 C142.492951,46.9252404 141.908457,44.8795109 141.351788,42.7085 C140.182782,47.2175225 138.985961,50.974985 137.761288,53.981 L118.973788,102.578 L163.646288,102.578 Z M197.380288,147 L184.855288,147 C183.407947,147 182.238959,146.63817 181.348288,145.9145 C180.457617,145.19083 179.789623,144.272339 179.344288,143.159 L168.155288,114.268 L114.464788,114.268 L103.275788,143.159 C102.941786,144.161005 102.301626,145.051663 101.355288,145.831 C100.40895,146.610337 99.2399615,147 97.8482879,147 L85.3232879,147 L133.168788,27.3445 L149.534788,27.3445 L197.380288,147 Z M229.259576,147 L213.060576,147 L213.060576,27.3445 L229.259576,27.3445 L229.259576,147 Z M327.604864,133.3895 L327.604864,147 L259.719364,147 L259.719364,27.3445 L275.834864,27.3445 L275.834864,133.3895 L327.604864,133.3895 Z M450.332152,87.214 C450.332152,96.1763781 448.912666,104.401046 446.073652,111.88825 C443.234637,119.375454 439.226677,125.818806 434.049652,131.2185 C428.872626,136.618194 422.651938,140.807068 415.387402,143.78525 C408.122865,146.763432 400.093029,148.2525 391.297652,148.2525 C382.502274,148.2525 374.486354,146.763432 367.249652,143.78525 C360.012949,140.807068 353.806177,136.618194 348.629152,131.2185 C343.452126,125.818806 339.444166,119.375454 336.605152,111.88825 C333.766137,104.401046 332.346652,96.1763781 332.346652,87.214 C332.346652,78.2516219 333.766137,70.0269541 336.605152,62.53975 C339.444166,55.0525459 343.452126,48.5952771 348.629152,43.16775 C353.806177,37.7402229 360.012949,33.523515 367.249652,30.5175 C374.486354,27.511485 382.502274,26.0085 391.297652,26.0085 C400.093029,26.0085 408.122865,27.511485 415.387402,30.5175 C422.651938,33.523515 428.872626,37.7402229 434.049652,43.16775 C439.226677,48.5952771 443.234637,55.0525459 446.073652,62.53975 C448.912666,70.0269541 450.332152,78.2516219 450.332152,87.214 Z M433.715652,87.214 C433.715652,79.8659633 432.713662,73.2695292 430.709652,67.4245 C428.705641,61.5794708 425.86667,56.6391035 422.192652,52.60325 C418.518633,48.5673965 414.065344,45.4640109 408.832652,43.293 C403.599959,41.1219891 397.755017,40.0365 391.297652,40.0365 C384.895953,40.0365 379.078844,41.1219891 373.846152,43.293 C368.613459,45.4640109 364.146253,48.5673965 360.444402,52.60325 C356.74255,56.6391035 353.889662,61.5794708 351.885652,67.4245 C349.881641,73.2695292 348.879652,79.8659633 348.879652,87.214 C348.879652,94.5620367 349.881641,101.144554 351.885652,106.96175 C353.889662,112.778946 356.74255,117.705396 360.444402,121.74125 C364.146253,125.777104 368.613459,128.866573 373.846152,131.00975 C379.078844,133.152927 384.895953,134.2245 391.297652,134.2245 C397.755017,134.2245 403.599959,133.152927 408.832652,131.00975 C414.065344,128.866573 418.518633,125.777104 422.192652,121.74125 C425.86667,117.705396 428.705641,112.778946 430.709652,106.96175 C432.713662,101.144554 433.715652,94.5620367 433.715652,87.214 Z M506.509939,85.2935 C511.185963,85.2935 515.319171,84.7229224 518.909689,83.58175 C522.500207,82.4405776 525.506177,80.8262604 527.927689,78.73875 C530.349201,76.6512396 532.172267,74.1601811 533.396939,71.2655 C534.621612,68.3708189 535.233939,65.1700175 535.233939,61.663 C535.233939,54.537631 532.895963,49.1658514 528.219939,45.5475 C523.543916,41.9291486 516.529986,40.12 507.177939,40.12 L489.475939,40.12 L489.475939,85.2935 L506.509939,85.2935 Z M561.786939,147 L547.424939,147 C544.474591,147 542.303613,145.858845 540.911939,143.5765 L509.849939,100.8245 C508.903601,99.4884933 507.887695,98.5282529 506.802189,97.94375 C505.716684,97.3592471 504.032784,97.067 501.750439,97.067 L489.475939,97.067 L489.475939,147 L473.360439,147 L473.360439,27.3445 L507.177939,27.3445 C514.748644,27.3445 521.289412,28.109909 526.800439,29.64075 C532.311467,31.171591 536.862171,33.3843189 540.452689,36.279 C544.043207,39.1736811 546.701264,42.6667295 548.426939,46.75825 C550.152615,50.8497705 551.015439,55.428308 551.015439,60.494 C551.015439,64.7246878 550.347446,68.6769816 549.011439,72.351 C547.675433,76.0250184 545.741035,79.3232354 543.208189,82.24575 C540.675343,85.1682646 537.585874,87.659323 533.939689,89.719 C530.293504,91.778677 526.160296,93.337328 521.539939,94.395 C523.599616,95.5640058 525.380932,97.2618222 526.883939,99.4885 L561.786939,147 Z" id="TAILOR" fill="#000000"></path>
            </g>
        </g>
    </g>
</svg>